<svg width="256" height="12" viewBox="0 0 256 12" fill="none" xmlns="http://www.w3.org/2000/svg">
<path d="M0.0697461 11V10.325C0.369746 10.325 0.599746 10.245 0.759746 10.085C0.919746 9.925 1.05475 9.71 1.16475 9.44C1.27475 9.16 1.39475 8.85 1.52475 8.51L4.55475 0.214999H5.15475L8.43975 8.63C8.51975 8.82 8.60975 9.08 8.70975 9.41C8.80975 9.73 8.85475 10.005 8.84475 10.235C9.01475 10.215 9.17975 10.205 9.33975 10.205C9.50975 10.195 9.66975 10.185 9.81975 10.175V11H6.17475V10.34C6.52475 10.33 6.75475 10.255 6.86475 10.115C6.98475 9.965 7.02975 9.785 6.99975 9.575C6.97975 9.365 6.92975 9.155 6.84975 8.945L6.39975 7.73L2.72475 7.82L2.28975 9.125C2.22975 9.325 2.16475 9.515 2.09475 9.695C2.02475 9.875 1.95475 10.05 1.88475 10.22C2.06475 10.2 2.25475 10.19 2.45475 10.19C2.66475 10.18 2.84975 10.17 3.00975 10.16V11H0.0697461ZM2.99475 7.01H6.14475L5.19975 4.475C5.07975 4.145 4.96475 3.82 4.85475 3.5C4.74475 3.17 4.64475 2.855 4.55475 2.555H4.53975C4.45975 2.805 4.36975 3.08 4.26975 3.38C4.16975 3.68 4.05475 4.005 3.92475 4.355L2.99475 7.01ZM16.5045 11V10.34C16.8345 10.32 17.0695 10.25 17.2095 10.13C17.3595 10.01 17.4545 9.83 17.4945 9.59C17.5345 9.35 17.5545 9.045 17.5545 8.675V2.435C17.5545 2.215 17.5595 2.005 17.5695 1.805C17.5795 1.595 17.5895 1.415 17.5995 1.265C17.4295 1.275 17.2445 1.285 17.0445 1.295C16.8445 1.305 16.6645 1.315 16.5045 1.325V0.499999H20.1945V1.16C19.8745 1.17 19.6395 1.24 19.4895 1.37C19.3395 1.49 19.2445 1.67 19.2045 1.91C19.1645 2.14 19.1445 2.445 19.1445 2.825V9.035C19.1445 9.305 19.1395 9.545 19.1295 9.755C19.1295 9.955 19.1195 10.12 19.0995 10.25L21.6345 10.22C22.2545 10.21 22.7295 10.01 23.0595 9.62C23.3895 9.22 23.5545 8.59 23.5545 7.73H24.2295L24.1395 11H16.5045ZM31.3082 11V10.34C31.6382 10.32 31.8732 10.25 32.0132 10.13C32.1632 10.01 32.2582 9.83 32.2982 9.59C32.3382 9.35 32.3582 9.045 32.3582 8.675V2.435C32.3582 2.215 32.3632 2.005 32.3732 1.805C32.3832 1.595 32.3932 1.415 32.4032 1.265C32.2332 1.275 32.0482 1.285 31.8482 1.295C31.6482 1.305 31.4682 1.315 31.3082 1.325V0.499999H34.9982V1.16C34.6782 1.17 34.4432 1.24 34.2932 1.37C34.1432 1.49 34.0482 1.67 34.0082 1.91C33.9682 2.14 33.9482 2.445 33.9482 2.825V9.035C33.9482 9.305 33.9432 9.545 33.9332 9.755C33.9332 9.955 33.9232 10.12 33.9032 10.25L36.4382 10.22C37.0582 10.21 37.5332 10.01 37.8632 9.62C38.1932 9.22 38.3582 8.59 38.3582 7.73H39.0332L38.9432 11H31.3082ZM45.5063 11V10.325C45.8063 10.325 46.0363 10.245 46.1963 10.085C46.3563 9.925 46.4913 9.71 46.6013 9.44C46.7113 9.16 46.8313 8.85 46.9613 8.51L49.9913 0.214999H50.5913L53.8763 8.63C53.9563 8.82 54.0463 9.08 54.1463 9.41C54.2463 9.73 54.2913 10.005 54.2813 10.235C54.4513 10.215 54.6163 10.205 54.7763 10.205C54.9463 10.195 55.1063 10.185 55.2563 10.175V11H51.6113V10.34C51.9613 10.33 52.1913 10.255 52.3013 10.115C52.4213 9.965 52.4663 9.785 52.4363 9.575C52.4163 9.365 52.3663 9.155 52.2863 8.945L51.8363 7.73L48.1613 7.82L47.7263 9.125C47.6663 9.325 47.6013 9.515 47.5313 9.695C47.4613 9.875 47.3913 10.05 47.3213 10.22C47.5013 10.2 47.6913 10.19 47.8913 10.19C48.1013 10.18 48.2863 10.17 48.4463 10.16V11H45.5063ZM48.4313 7.01H51.5813L50.6363 4.475C50.5163 4.145 50.4013 3.82 50.2913 3.5C50.1813 3.17 50.0813 2.855 49.9913 2.555H49.9763C49.8963 2.805 49.8063 3.08 49.7063 3.38C49.6063 3.68 49.4913 4.005 49.3613 4.355L48.4313 7.01ZM67.896 3.74C67.846 3.23 67.716 2.77 67.506 2.36C67.296 1.95 67.006 1.625 66.636 1.385C66.266 1.135 65.806 1.015 65.256 1.025C64.696 1.025 64.251 1.18 63.921 1.49C63.591 1.8 63.426 2.175 63.426 2.615C63.426 3.005 63.536 3.335 63.756 3.605C63.976 3.865 64.271 4.1 64.641 4.31C65.021 4.52 65.446 4.73 65.916 4.94C66.296 5.1 66.681 5.28 67.071 5.48C67.461 5.68 67.816 5.91 68.136 6.17C68.456 6.42 68.711 6.725 68.901 7.085C69.091 7.435 69.186 7.85 69.186 8.33C69.186 8.89 69.041 9.39 68.751 9.83C68.461 10.27 68.046 10.615 67.506 10.865C66.976 11.115 66.331 11.24 65.571 11.24C65.141 11.24 64.686 11.175 64.206 11.045C63.736 10.915 63.306 10.73 62.916 10.49L62.991 11.12H62.076L62.016 7.82H62.736C62.816 8.69 63.126 9.35 63.666 9.8C64.216 10.24 64.871 10.46 65.631 10.46C66.011 10.46 66.356 10.39 66.666 10.25C66.976 10.11 67.221 9.91 67.401 9.65C67.581 9.39 67.671 9.085 67.671 8.735C67.671 8.325 67.546 7.98 67.296 7.7C67.056 7.42 66.746 7.18 66.366 6.98C65.996 6.78 65.606 6.59 65.196 6.41C64.786 6.23 64.386 6.04 63.996 5.84C63.616 5.64 63.271 5.41 62.961 5.15C62.651 4.89 62.406 4.585 62.226 4.235C62.046 3.875 61.956 3.455 61.956 2.975C61.956 2.695 62.006 2.4 62.106 2.09C62.206 1.78 62.376 1.485 62.616 1.205C62.856 0.924999 63.181 0.699999 63.591 0.53C64.011 0.35 64.536 0.26 65.166 0.26C65.546 0.26 65.971 0.315 66.441 0.424999C66.921 0.535 67.356 0.73 67.746 1.01L67.686 0.38H68.586V3.74H67.896ZM92.1037 11.15C91.6937 10.21 91.2837 9.27 90.8737 8.33C90.4637 7.39 90.0587 6.445 89.6587 5.495C89.5387 5.215 89.4137 4.91 89.2837 4.58C89.1537 4.25 89.0237 3.9 88.8937 3.53C88.7637 3.16 88.6387 2.785 88.5187 2.405C88.5187 2.665 88.5187 2.915 88.5187 3.155C88.5187 3.395 88.5187 3.625 88.5187 3.845C88.5087 4.155 88.4987 4.52 88.4887 4.94C88.4787 5.35 88.4637 5.785 88.4437 6.245C88.4337 6.705 88.4237 7.165 88.4137 7.625C88.4137 8.075 88.4087 8.51 88.3987 8.93C88.3987 9.17 88.3937 9.405 88.3837 9.635C88.3737 9.865 88.3587 10.065 88.3387 10.235C88.5187 10.215 88.7087 10.205 88.9087 10.205C89.1187 10.195 89.3037 10.185 89.4637 10.175V11H86.4187V10.34C86.6987 10.33 86.9137 10.275 87.0637 10.175C87.2137 10.075 87.3137 9.925 87.3637 9.725C87.4237 9.525 87.4587 9.28 87.4687 8.99L87.6787 2.51C87.6887 2.29 87.6987 2.07 87.7087 1.85C87.7187 1.63 87.7287 1.435 87.7387 1.265C87.5587 1.275 87.3687 1.285 87.1687 1.295C86.9687 1.295 86.7937 1.3 86.6437 1.31V0.499999H89.2687L91.7437 6.41C91.8637 6.68 91.9837 6.97 92.1037 7.28C92.2237 7.58 92.3437 7.88 92.4637 8.18C92.5937 8.47 92.7087 8.745 92.8087 9.005H92.8387C92.9487 8.705 93.0737 8.375 93.2137 8.015C93.3537 7.655 93.4737 7.335 93.5737 7.055C94.0037 5.975 94.4387 4.895 94.8787 3.815C95.3287 2.735 95.7687 1.63 96.1987 0.499999H98.8387V1.16C98.5987 1.16 98.3937 1.205 98.2237 1.295C98.0637 1.375 97.9437 1.525 97.8637 1.745C97.7937 1.965 97.7687 2.28 97.7887 2.69L98.1187 9.155C98.1387 9.355 98.1437 9.55 98.1337 9.74C98.1337 9.93 98.1287 10.09 98.1187 10.22C98.2987 10.21 98.4887 10.205 98.6887 10.205C98.8987 10.195 99.0787 10.185 99.2287 10.175V11H95.5987V10.34C95.8887 10.33 96.1087 10.27 96.2587 10.16C96.4187 10.05 96.5237 9.88 96.5737 9.65C96.6237 9.41 96.6387 9.1 96.6187 8.72L96.3787 4.355C96.3687 4.205 96.3587 4.03 96.3487 3.83C96.3387 3.62 96.3237 3.405 96.3037 3.185C96.2937 2.955 96.2837 2.735 96.2737 2.525C96.2437 2.595 96.2137 2.67 96.1837 2.75C96.1537 2.82 96.1237 2.9 96.0937 2.99L92.8687 11.15H92.1037ZM111.762 7.205C111.762 6.775 111.697 6.465 111.567 6.275C111.447 6.085 111.262 5.97 111.012 5.93C110.762 5.88 110.452 5.865 110.082 5.885L109.212 5.915V9.035C109.212 9.305 109.207 9.545 109.197 9.755C109.197 9.955 109.187 10.12 109.167 10.25L111.747 10.22C112.137 10.21 112.487 10.14 112.797 10.01C113.107 9.87 113.352 9.635 113.532 9.305C113.712 8.975 113.802 8.525 113.802 7.955H114.462L114.372 11H106.572V10.34C106.902 10.32 107.137 10.25 107.277 10.13C107.427 10.01 107.522 9.83 107.562 9.59C107.602 9.35 107.622 9.045 107.622 8.675V2.435C107.622 2.215 107.627 2.005 107.637 1.805C107.647 1.595 107.657 1.415 107.667 1.265C107.497 1.275 107.312 1.285 107.112 1.295C106.912 1.305 106.732 1.315 106.572 1.325V0.499999H113.892L113.967 3.215H113.307C113.307 2.645 113.212 2.21 113.022 1.91C112.842 1.61 112.602 1.41 112.302 1.31C112.012 1.21 111.697 1.165 111.357 1.175L110.307 1.205C109.997 1.205 109.762 1.26 109.602 1.37C109.442 1.47 109.337 1.64 109.287 1.88C109.237 2.11 109.212 2.425 109.212 2.825V5.18H111.687L111.597 3.89H112.422V7.205H111.762ZM121.918 10.34C122.248 10.32 122.483 10.25 122.623 10.13C122.773 10.01 122.868 9.83 122.908 9.59C122.948 9.35 122.968 9.045 122.968 8.675V2.435C122.968 2.215 122.973 2.005 122.983 1.805C122.993 1.595 123.003 1.415 123.013 1.265C122.843 1.275 122.658 1.285 122.458 1.295C122.258 1.305 122.078 1.315 121.918 1.325V0.499999L125.743 0.484999C126.673 0.484999 127.508 0.604999 128.248 0.844999C128.988 1.085 129.618 1.435 130.138 1.895C130.658 2.345 131.053 2.895 131.323 3.545C131.593 4.195 131.728 4.92 131.728 5.72C131.728 6.39 131.613 7.04 131.383 7.67C131.153 8.3 130.798 8.865 130.318 9.365C129.848 9.855 129.253 10.25 128.533 10.55C127.813 10.85 126.963 11 125.983 11H121.918V10.34ZM124.558 9.005C124.558 9.275 124.553 9.515 124.543 9.725C124.543 9.935 124.533 10.105 124.513 10.235C124.723 10.235 124.933 10.24 125.143 10.25C125.353 10.25 125.538 10.25 125.698 10.25C125.868 10.25 125.988 10.25 126.058 10.25C126.678 10.25 127.228 10.135 127.708 9.905C128.188 9.675 128.593 9.355 128.923 8.945C129.263 8.535 129.518 8.06 129.688 7.52C129.868 6.98 129.958 6.405 129.958 5.795C129.958 4.815 129.798 3.985 129.478 3.305C129.158 2.625 128.673 2.105 128.023 1.745C127.383 1.385 126.583 1.2 125.623 1.19C125.293 1.19 125.053 1.25 124.903 1.37C124.753 1.48 124.658 1.655 124.618 1.895C124.578 2.135 124.558 2.44 124.558 2.81V9.005ZM138.035 11V10.325C138.335 10.325 138.565 10.245 138.725 10.085C138.885 9.925 139.02 9.71 139.13 9.44C139.24 9.16 139.36 8.85 139.49 8.51L142.52 0.214999H143.12L146.405 8.63C146.485 8.82 146.575 9.08 146.675 9.41C146.775 9.73 146.82 10.005 146.81 10.235C146.98 10.215 147.145 10.205 147.305 10.205C147.475 10.195 147.635 10.185 147.785 10.175V11H144.14V10.34C144.49 10.33 144.72 10.255 144.83 10.115C144.95 9.965 144.995 9.785 144.965 9.575C144.945 9.365 144.895 9.155 144.815 8.945L144.365 7.73L140.69 7.82L140.255 9.125C140.195 9.325 140.13 9.515 140.06 9.695C139.99 9.875 139.92 10.05 139.85 10.22C140.03 10.2 140.22 10.19 140.42 10.19C140.63 10.18 140.815 10.17 140.975 10.16V11H138.035ZM140.96 7.01H144.11L143.165 4.475C143.045 4.145 142.93 3.82 142.82 3.5C142.71 3.17 142.61 2.855 142.52 2.555H142.505C142.425 2.805 142.335 3.08 142.235 3.38C142.135 3.68 142.02 4.005 141.89 4.355L140.96 7.01ZM154.469 11V10.34C154.799 10.32 155.034 10.25 155.174 10.13C155.324 10.01 155.419 9.83 155.459 9.59C155.499 9.35 155.519 9.045 155.519 8.675V2.435C155.519 2.215 155.524 2.005 155.534 1.805C155.544 1.595 155.554 1.415 155.564 1.265C155.394 1.275 155.209 1.285 155.009 1.295C154.809 1.305 154.629 1.315 154.469 1.325V0.499999C155.079 0.489999 155.694 0.484999 156.314 0.484999C156.934 0.475 157.559 0.475 158.189 0.484999C159.129 0.484999 159.904 0.595 160.514 0.815C161.124 1.025 161.579 1.34 161.879 1.76C162.189 2.18 162.339 2.71 162.329 3.35C162.339 3.75 162.259 4.15 162.089 4.55C161.919 4.94 161.634 5.29 161.234 5.6C160.834 5.91 160.284 6.145 159.584 6.305C159.784 6.425 159.964 6.59 160.124 6.8C160.284 7.01 160.449 7.245 160.619 7.505L161.534 8.915C161.724 9.215 161.899 9.47 162.059 9.68C162.219 9.89 162.399 10.055 162.599 10.175C162.799 10.285 163.039 10.34 163.319 10.34V11H161.234C160.974 10.78 160.749 10.545 160.559 10.295C160.379 10.035 160.184 9.745 159.974 9.425L158.939 7.745C158.809 7.545 158.669 7.33 158.519 7.1C158.379 6.87 158.224 6.675 158.054 6.515C157.894 6.515 157.734 6.515 157.574 6.515C157.424 6.515 157.269 6.515 157.109 6.515V8.99C157.109 9.26 157.104 9.505 157.094 9.725C157.094 9.935 157.084 10.105 157.064 10.235C157.184 10.225 157.309 10.22 157.439 10.22C157.579 10.21 157.714 10.2 157.844 10.19C157.984 10.18 158.104 10.175 158.204 10.175V11H154.469ZM157.979 5.78C158.529 5.77 158.999 5.685 159.389 5.525C159.779 5.355 160.079 5.1 160.289 4.76C160.499 4.41 160.604 3.96 160.604 3.41C160.604 3 160.544 2.655 160.424 2.375C160.304 2.095 160.134 1.87 159.914 1.7C159.694 1.52 159.429 1.395 159.119 1.325C158.819 1.245 158.494 1.205 158.144 1.205C157.824 1.205 157.589 1.265 157.439 1.385C157.299 1.505 157.209 1.68 157.169 1.91C157.129 2.14 157.109 2.435 157.109 2.795V5.735C157.259 5.745 157.399 5.76 157.529 5.78C157.669 5.79 157.819 5.79 157.979 5.78ZM170.181 11V10.34C170.511 10.33 170.746 10.265 170.886 10.145C171.036 10.015 171.131 9.825 171.171 9.575C171.211 9.325 171.231 9.01 171.231 8.63V2.51C171.231 2.24 171.236 2 171.246 1.79C171.256 1.57 171.266 1.395 171.276 1.265C171.106 1.275 170.921 1.285 170.721 1.295C170.521 1.305 170.341 1.315 170.181 1.325V0.499999C170.781 0.489999 171.381 0.484999 171.981 0.484999C172.581 0.475 173.196 0.47 173.826 0.47C175.006 0.47 175.931 0.685 176.601 1.115C177.271 1.535 177.591 2.195 177.561 3.095C177.551 3.405 177.456 3.715 177.276 4.025C177.106 4.325 176.846 4.595 176.496 4.835C176.146 5.065 175.711 5.235 175.191 5.345V5.375C176.261 5.425 177.061 5.705 177.591 6.215C178.121 6.715 178.386 7.325 178.386 8.045C178.386 8.665 178.226 9.2 177.906 9.65C177.596 10.09 177.171 10.425 176.631 10.655C176.101 10.885 175.491 11 174.801 11H170.181ZM172.776 10.25C172.946 10.25 173.131 10.255 173.331 10.265C173.531 10.265 173.721 10.265 173.901 10.265C174.091 10.265 174.231 10.265 174.321 10.265C175.041 10.255 175.606 10.06 176.016 9.68C176.426 9.3 176.631 8.77 176.631 8.09C176.631 7.53 176.516 7.095 176.286 6.785C176.066 6.465 175.776 6.24 175.416 6.11C175.056 5.98 174.671 5.915 174.261 5.915C173.981 5.915 173.726 5.92 173.496 5.93C173.276 5.93 173.051 5.935 172.821 5.945V9.02C172.821 9.29 172.816 9.53 172.806 9.74C172.806 9.95 172.796 10.12 172.776 10.25ZM172.821 5.21L173.811 5.18C174.331 5.17 174.741 5.06 175.041 4.85C175.351 4.64 175.571 4.37 175.701 4.04C175.831 3.71 175.891 3.365 175.881 3.005C175.881 2.505 175.776 2.125 175.566 1.865C175.356 1.605 175.096 1.425 174.786 1.325C174.476 1.225 174.171 1.175 173.871 1.175C173.591 1.175 173.376 1.215 173.226 1.295C173.076 1.375 172.971 1.515 172.911 1.715C172.851 1.905 172.821 2.19 172.821 2.57V5.21ZM190.746 7.205C190.746 6.775 190.681 6.465 190.551 6.275C190.431 6.085 190.246 5.97 189.996 5.93C189.746 5.88 189.436 5.865 189.066 5.885L188.196 5.915V9.035C188.196 9.305 188.191 9.545 188.181 9.755C188.181 9.955 188.171 10.12 188.151 10.25L190.731 10.22C191.121 10.21 191.471 10.14 191.781 10.01C192.091 9.87 192.336 9.635 192.516 9.305C192.696 8.975 192.786 8.525 192.786 7.955H193.446L193.356 11H185.556V10.34C185.886 10.32 186.121 10.25 186.261 10.13C186.411 10.01 186.506 9.83 186.546 9.59C186.586 9.35 186.606 9.045 186.606 8.675V2.435C186.606 2.215 186.611 2.005 186.621 1.805C186.631 1.595 186.641 1.415 186.651 1.265C186.481 1.275 186.296 1.285 186.096 1.295C185.896 1.305 185.716 1.315 185.556 1.325V0.499999H192.876L192.951 3.215H192.291C192.291 2.645 192.196 2.21 192.006 1.91C191.826 1.61 191.586 1.41 191.286 1.31C190.996 1.21 190.681 1.165 190.341 1.175L189.291 1.205C188.981 1.205 188.746 1.26 188.586 1.37C188.426 1.47 188.321 1.64 188.271 1.88C188.221 2.11 188.196 2.425 188.196 2.825V5.18H190.671L190.581 3.89H191.406V7.205H190.746ZM208.732 3.74C208.722 3.17 208.657 2.695 208.537 2.315C208.417 1.935 208.217 1.65 207.937 1.46C207.667 1.27 207.292 1.18 206.812 1.19H205.732L205.717 8.99C205.717 9.26 205.712 9.505 205.702 9.725C205.702 9.935 205.692 10.105 205.672 10.235C205.862 10.215 206.067 10.205 206.287 10.205C206.517 10.195 206.722 10.185 206.902 10.175V11H203.092V10.34C203.422 10.32 203.657 10.25 203.797 10.13C203.937 10.01 204.027 9.83 204.067 9.59C204.107 9.34 204.127 9.035 204.127 8.675V1.205L202.867 1.22C202.257 1.22 201.812 1.425 201.532 1.835C201.252 2.245 201.112 2.88 201.112 3.74H200.407L200.497 0.499999H209.347L209.437 3.74H208.732ZM215.188 11V10.325C215.488 10.325 215.718 10.245 215.878 10.085C216.038 9.925 216.173 9.71 216.283 9.44C216.393 9.16 216.513 8.85 216.643 8.51L219.673 0.214999H220.273L223.558 8.63C223.638 8.82 223.728 9.08 223.828 9.41C223.928 9.73 223.973 10.005 223.963 10.235C224.133 10.215 224.298 10.205 224.458 10.205C224.628 10.195 224.788 10.185 224.938 10.175V11H221.293V10.34C221.643 10.33 221.873 10.255 221.983 10.115C222.103 9.965 222.148 9.785 222.118 9.575C222.098 9.365 222.048 9.155 221.968 8.945L221.518 7.73L217.843 7.82L217.408 9.125C217.348 9.325 217.283 9.515 217.213 9.695C217.143 9.875 217.073 10.05 217.003 10.22C217.183 10.2 217.373 10.19 217.573 10.19C217.783 10.18 217.968 10.17 218.128 10.16V11H215.188ZM218.113 7.01H221.263L220.318 4.475C220.198 4.145 220.083 3.82 219.973 3.5C219.863 3.17 219.763 2.855 219.673 2.555H219.658C219.578 2.805 219.488 3.08 219.388 3.38C219.288 3.68 219.173 4.005 219.043 4.355L218.113 7.01ZM231.623 11V10.34C231.953 10.32 232.188 10.25 232.328 10.13C232.478 10.01 232.573 9.83 232.613 9.59C232.653 9.35 232.673 9.045 232.673 8.675V2.435C232.673 2.215 232.678 2.005 232.688 1.805C232.698 1.595 232.708 1.415 232.718 1.265C232.548 1.275 232.363 1.285 232.163 1.295C231.963 1.305 231.783 1.315 231.623 1.325V0.499999C232.233 0.489999 232.848 0.484999 233.468 0.484999C234.088 0.475 234.713 0.475 235.343 0.484999C236.283 0.484999 237.058 0.595 237.668 0.815C238.278 1.025 238.733 1.34 239.033 1.76C239.343 2.18 239.493 2.71 239.483 3.35C239.493 3.75 239.413 4.15 239.243 4.55C239.073 4.94 238.788 5.29 238.388 5.6C237.988 5.91 237.438 6.145 236.738 6.305C236.938 6.425 237.118 6.59 237.278 6.8C237.438 7.01 237.603 7.245 237.773 7.505L238.688 8.915C238.878 9.215 239.053 9.47 239.213 9.68C239.373 9.89 239.553 10.055 239.753 10.175C239.953 10.285 240.193 10.34 240.473 10.34V11H238.388C238.128 10.78 237.903 10.545 237.713 10.295C237.533 10.035 237.338 9.745 237.128 9.425L236.093 7.745C235.963 7.545 235.823 7.33 235.673 7.1C235.533 6.87 235.378 6.675 235.208 6.515C235.048 6.515 234.888 6.515 234.728 6.515C234.578 6.515 234.423 6.515 234.263 6.515V8.99C234.263 9.26 234.258 9.505 234.248 9.725C234.248 9.935 234.238 10.105 234.218 10.235C234.338 10.225 234.463 10.22 234.593 10.22C234.733 10.21 234.868 10.2 234.998 10.19C235.138 10.18 235.258 10.175 235.358 10.175V11H231.623ZM235.133 5.78C235.683 5.77 236.153 5.685 236.543 5.525C236.933 5.355 237.233 5.1 237.443 4.76C237.653 4.41 237.758 3.96 237.758 3.41C237.758 3 237.698 2.655 237.578 2.375C237.458 2.095 237.288 1.87 237.068 1.7C236.848 1.52 236.583 1.395 236.273 1.325C235.973 1.245 235.648 1.205 235.298 1.205C234.978 1.205 234.743 1.265 234.593 1.385C234.453 1.505 234.363 1.68 234.323 1.91C234.283 2.14 234.263 2.435 234.263 2.795V5.735C234.413 5.745 234.553 5.76 234.683 5.78C234.823 5.79 234.973 5.79 235.133 5.78ZM252.525 7.205C252.525 6.775 252.46 6.465 252.33 6.275C252.21 6.085 252.025 5.97 251.775 5.93C251.525 5.88 251.215 5.865 250.845 5.885L249.975 5.915V9.035C249.975 9.305 249.97 9.545 249.96 9.755C249.96 9.955 249.95 10.12 249.93 10.25L252.51 10.22C252.9 10.21 253.25 10.14 253.56 10.01C253.87 9.87 254.115 9.635 254.295 9.305C254.475 8.975 254.565 8.525 254.565 7.955H255.225L255.135 11H247.335V10.34C247.665 10.32 247.9 10.25 248.04 10.13C248.19 10.01 248.285 9.83 248.325 9.59C248.365 9.35 248.385 9.045 248.385 8.675V2.435C248.385 2.215 248.39 2.005 248.4 1.805C248.41 1.595 248.42 1.415 248.43 1.265C248.26 1.275 248.075 1.285 247.875 1.295C247.675 1.305 247.495 1.315 247.335 1.325V0.499999H254.655L254.73 3.215H254.07C254.07 2.645 253.975 2.21 253.785 1.91C253.605 1.61 253.365 1.41 253.065 1.31C252.775 1.21 252.46 1.165 252.12 1.175L251.07 1.205C250.76 1.205 250.525 1.26 250.365 1.37C250.205 1.47 250.1 1.64 250.05 1.88C250 2.11 249.975 2.425 249.975 2.825V5.18H252.45L252.36 3.89H253.185V7.205H252.525Z" fill="#3D84A8"/>
</svg>
