<svg width="383" height="41" viewBox="0 0 383 41" fill="none" xmlns="http://www.w3.org/2000/svg">
<path d="M0.930625 40V37.58C2.14063 37.5067 3.00229 37.25 3.51563 36.81C4.06563 36.37 4.41396 35.71 4.56063 34.83C4.70729 33.95 4.78063 32.8317 4.78063 31.475V8.595C4.78063 7.78833 4.79896 7.01833 4.83563 6.285C4.87229 5.515 4.90896 4.855 4.94563 4.305C4.32229 4.34167 3.64396 4.37833 2.91063 4.415C2.17729 4.45167 1.51729 4.48833 0.930625 4.525V1.5H14.4606V3.92C13.2873 3.95667 12.4256 4.21333 11.8756 4.69C11.3256 5.13 10.9773 5.79 10.8306 6.67C10.684 7.51333 10.6106 8.63167 10.6106 10.025V32.795C10.6106 33.785 10.5923 34.665 10.5556 35.435C10.5556 36.1683 10.519 36.7733 10.4456 37.25L19.7406 37.14C22.014 37.1033 23.7556 36.37 24.9656 34.94C26.1756 33.4733 26.7806 31.1633 26.7806 28.01H29.2556L28.9256 40H0.930625ZM69.4714 3.92C68.408 3.92 67.6014 4.12167 67.0514 4.525C66.5014 4.92833 66.1347 5.47833 65.9514 6.175C65.768 6.835 65.6764 7.58667 65.6764 8.43V22.675C65.6764 24.8383 65.8414 26.8183 66.1714 28.615C66.538 30.375 67.1064 31.915 67.8764 33.235C68.683 34.5183 69.7647 35.5267 71.1214 36.26C72.5147 36.9933 74.2014 37.3783 76.1814 37.415C78.638 37.415 80.6547 36.865 82.2314 35.765C83.808 34.665 84.9814 33.0883 85.7514 31.035C86.558 28.9817 86.9797 26.5433 87.0164 23.72L87.1264 8.595C87.1264 7.78833 87.1447 7.01833 87.1814 6.285C87.218 5.515 87.2547 4.855 87.2914 4.305C86.668 4.34167 85.9897 4.37833 85.2564 4.415C84.523 4.45167 83.863 4.48833 83.2764 4.525V1.5H94.3864V3.92C93.1764 3.95667 92.2964 4.21333 91.7464 4.69C91.1964 5.13 90.848 5.79 90.7014 6.67C90.5547 7.51333 90.4814 8.63167 90.4814 10.025L90.4264 23.115C90.4264 25.755 90.1147 28.175 89.4914 30.375C88.9047 32.5383 87.988 34.4083 86.7414 35.985C85.5314 37.5617 83.973 38.7717 82.0664 39.615C80.1964 40.4583 77.978 40.88 75.4114 40.88C72.4414 40.88 69.948 40.4767 67.9314 39.67C65.9147 38.8633 64.3014 37.6717 63.0914 36.095C61.918 34.4817 61.0747 32.52 60.5614 30.21C60.048 27.8633 59.7914 25.1683 59.7914 22.125V10.245C59.7914 9.255 59.8097 8.17333 59.8464 7C59.9197 5.82667 59.9747 4.92833 60.0114 4.305C59.388 4.34167 58.7097 4.37833 57.9764 4.415C57.243 4.415 56.583 4.43333 55.9964 4.47V1.5H69.4714V3.92ZM153.018 13.765C152.614 10.465 151.478 7.935 149.608 6.175C147.738 4.37833 145.299 3.46167 142.293 3.425C140.386 3.425 138.626 3.84667 137.013 4.69C135.399 5.53333 134.006 6.725 132.833 8.265C131.659 9.76833 130.743 11.565 130.083 13.655C129.459 15.7083 129.148 17.9633 129.148 20.42C129.148 23.7567 129.734 26.7267 130.908 29.33C132.081 31.8967 133.694 33.895 135.748 35.325C137.838 36.755 140.203 37.47 142.843 37.47C145.189 37.47 147.499 36.92 149.773 35.82C152.083 34.6833 153.989 33.0883 155.493 31.035L157.308 32.575C155.658 34.8483 153.898 36.59 152.028 37.8C150.158 39.01 148.288 39.8167 146.418 40.22C144.584 40.66 142.916 40.88 141.413 40.88C138.663 40.88 136.133 40.385 133.823 39.395C131.513 38.405 129.514 37.03 127.828 35.27C126.178 33.4733 124.894 31.4017 123.978 29.055C123.098 26.6717 122.658 24.105 122.658 21.355C122.658 18.7883 123.061 16.2767 123.868 13.82C124.674 11.3633 125.866 9.145 127.443 7.165C129.019 5.14833 130.999 3.55333 133.383 2.38C135.803 1.20667 138.608 0.619999 141.798 0.619999C143.668 0.619999 145.483 0.876666 147.243 1.39C149.039 1.90333 150.763 2.69167 152.413 3.755L152.138 1.005H155.548V13.765H153.018ZM205.285 26.085C205.285 24.5083 205.047 23.3717 204.57 22.675C204.13 21.9783 203.452 21.5567 202.535 21.41C201.618 21.2267 200.482 21.1717 199.125 21.245L195.935 21.355V32.795C195.935 33.785 195.917 34.665 195.88 35.435C195.88 36.1683 195.843 36.7733 195.77 37.25L205.23 37.14C206.66 37.1033 207.943 36.8467 209.08 36.37C210.217 35.8567 211.115 34.995 211.775 33.785C212.435 32.575 212.765 30.925 212.765 28.835H215.185L214.855 40H186.255V37.58C187.465 37.5067 188.327 37.25 188.84 36.81C189.39 36.37 189.738 35.71 189.885 34.83C190.032 33.95 190.105 32.8317 190.105 31.475V8.595C190.105 7.78833 190.123 7.01833 190.16 6.285C190.197 5.515 190.233 4.855 190.27 4.305C189.647 4.34167 188.968 4.37833 188.235 4.415C187.502 4.45167 186.842 4.48833 186.255 4.525V1.5H213.095L213.37 11.455H210.95C210.95 9.365 210.602 7.77 209.905 6.67C209.245 5.57 208.365 4.83666 207.265 4.47C206.202 4.10333 205.047 3.93833 203.8 3.975L199.95 4.085C198.813 4.085 197.952 4.28666 197.365 4.69C196.778 5.05667 196.393 5.68 196.21 6.56C196.027 7.40333 195.935 8.55833 195.935 10.025V18.66H205.01L204.68 13.93H207.705V26.085H205.285ZM245.272 40V37.58C246.482 37.5067 247.344 37.25 247.857 36.81C248.407 36.37 248.756 35.71 248.902 34.83C249.049 33.95 249.122 32.8317 249.122 31.475V8.595C249.122 7.78833 249.141 7.01833 249.177 6.285C249.214 5.515 249.251 4.855 249.287 4.305C248.664 4.34167 247.986 4.37833 247.252 4.415C246.519 4.45167 245.859 4.48833 245.272 4.525V1.5C247.509 1.46333 249.764 1.445 252.037 1.445C254.311 1.40833 256.602 1.40833 258.912 1.445C262.359 1.445 265.201 1.84833 267.437 2.655C269.674 3.425 271.342 4.58 272.442 6.12C273.579 7.66 274.129 9.60333 274.092 11.95C274.129 13.4167 273.836 14.8833 273.212 16.35C272.589 17.78 271.544 19.0633 270.077 20.2C268.611 21.3367 266.594 22.1983 264.027 22.785C264.761 23.225 265.421 23.83 266.007 24.6C266.594 25.37 267.199 26.2317 267.822 27.185L271.177 32.355C271.874 33.455 272.516 34.39 273.102 35.16C273.689 35.93 274.349 36.535 275.082 36.975C275.816 37.3783 276.696 37.58 277.722 37.58V40H270.077C269.124 39.1933 268.299 38.3317 267.602 37.415C266.942 36.4617 266.227 35.3983 265.457 34.225L261.662 28.065C261.186 27.3317 260.672 26.5433 260.122 25.7C259.609 24.8567 259.041 24.1417 258.417 23.555C257.831 23.555 257.244 23.555 256.657 23.555C256.107 23.555 255.539 23.555 254.952 23.555V32.63C254.952 33.62 254.934 34.5183 254.897 35.325C254.897 36.095 254.861 36.7183 254.787 37.195C255.227 37.1583 255.686 37.14 256.162 37.14C256.676 37.1033 257.171 37.0667 257.647 37.03C258.161 36.9933 258.601 36.975 258.967 36.975V40H245.272ZM258.142 20.86C260.159 20.8233 261.882 20.5117 263.312 19.925C264.742 19.3017 265.842 18.3667 266.612 17.12C267.382 15.8367 267.767 14.1867 267.767 12.17C267.767 10.6667 267.547 9.40166 267.107 8.375C266.667 7.34833 266.044 6.52333 265.237 5.9C264.431 5.24 263.459 4.78167 262.322 4.525C261.222 4.23166 260.031 4.085 258.747 4.085C257.574 4.085 256.712 4.305 256.162 4.745C255.649 5.185 255.319 5.82667 255.172 6.67C255.026 7.51333 254.952 8.595 254.952 9.915V20.695C255.502 20.7317 256.016 20.7867 256.492 20.86C257.006 20.8967 257.556 20.8967 258.142 20.86ZM319.163 3.92C317.989 3.95667 317.128 4.21333 316.578 4.69C316.028 5.13 315.679 5.79 315.533 6.67C315.386 7.51333 315.313 8.63167 315.313 10.025V32.63C315.313 33.62 315.294 34.5183 315.258 35.325C315.258 36.095 315.221 36.7183 315.148 37.195C315.771 37.1217 316.449 37.085 317.183 37.085C317.953 37.0483 318.613 37.0117 319.163 36.975V40H305.633V37.58C306.843 37.5067 307.704 37.25 308.218 36.81C308.768 36.37 309.116 35.71 309.263 34.83C309.409 33.95 309.483 32.8317 309.483 31.475V8.595C309.483 7.78833 309.501 7.01833 309.538 6.285C309.574 5.515 309.611 4.855 309.648 4.305C309.024 4.34167 308.346 4.37833 307.613 4.415C306.879 4.45167 306.219 4.48833 305.633 4.525V1.5H319.163V3.92ZM346.639 40V37.525C347.739 37.525 348.582 37.2317 349.169 36.645C349.755 36.0583 350.25 35.27 350.654 34.28C351.057 33.2533 351.497 32.1167 351.974 30.87L363.084 0.454998H365.284L377.329 31.31C377.622 32.0067 377.952 32.96 378.319 34.17C378.685 35.3433 378.85 36.3517 378.814 37.195C379.437 37.1217 380.042 37.085 380.629 37.085C381.252 37.0483 381.839 37.0117 382.389 36.975V40H369.024V37.58C370.307 37.5433 371.15 37.2683 371.554 36.755C371.994 36.205 372.159 35.545 372.049 34.775C371.975 34.005 371.792 33.235 371.499 32.465L369.849 28.01L356.374 28.34L354.779 33.125C354.559 33.8583 354.32 34.555 354.064 35.215C353.807 35.875 353.55 36.5167 353.294 37.14C353.954 37.0667 354.65 37.03 355.384 37.03C356.154 36.9933 356.832 36.9567 357.419 36.92V40H346.639ZM357.364 25.37H368.914L365.449 16.075C365.009 14.865 364.587 13.6733 364.184 12.5C363.78 11.29 363.414 10.135 363.084 9.035H363.029C362.735 9.95166 362.405 10.96 362.039 12.06C361.672 13.16 361.25 14.3517 360.774 15.635L357.364 25.37Z" fill="#3D84A8"/>
</svg>
